<svg width="20" height="20" viewBox="0 0 20 20" fill="none" xmlns="http://www.w3.org/2000/svg">
<path d="M9.89795 19.1C14.9237 19.1 18.9979 15.0258 18.9979 10C18.9979 4.97421 14.9237 0.9 9.89795 0.9C4.87216 0.9 0.797949 4.97421 0.797949 10C0.797949 15.0258 4.87216 19.1 9.89795 19.1Z" stroke="#5C5C5C" stroke-width="0.2"/>
<path d="M9.89795 10.7929L7.62957 8.14645C7.4622 7.95118 7.19084 7.95118 7.02347 8.14645C6.85611 8.34171 6.85611 8.65829 7.02347 8.85355L9.5949 11.8536C9.76227 12.0488 10.0336 12.0488 10.201 11.8536L12.7724 8.85355C12.9398 8.65829 12.9398 8.34171 12.7724 8.14645C12.6051 7.95118 12.3337 7.95118 12.1663 8.14645L9.89795 10.7929Z" fill="#565656"/>
<mask id="mask0_1155_1932" style="mask-type:luminance" maskUnits="userSpaceOnUse" x="6" y="8" width="7" height="4">
<path d="M9.89795 10.7929L7.62957 8.14645C7.4622 7.95118 7.19084 7.95118 7.02347 8.14645C6.85611 8.34171 6.85611 8.65829 7.02347 8.85355L9.5949 11.8536C9.76227 12.0488 10.0336 12.0488 10.201 11.8536L12.7724 8.85355C12.9398 8.65829 12.9398 8.34171 12.7724 8.14645C12.6051 7.95118 12.3337 7.95118 12.1663 8.14645L9.89795 10.7929Z" fill="white"/>
</mask>
<g mask="url(#mask0_1155_1932)">
</g>
</svg>
