<svg width="50" height="50" viewBox="0 0 26 26" fill="none"
    xmlns="http://www.w3.org/2000/svg">
    <path fill-rule="evenodd" clip-rule="evenodd" d="M7.74872 4.78055L8.82786 4.13244C9.04578 3.99897 9.28949 3.97901 9.50449 3.8655L11.0557 3.40376C11.0934 3.39703 11.1707 3.37442 11.1824 3.37129L11.6122 3.28255C11.8719 3.22893 12.6381 3.26043 12.9399 3.26813C13.0554 3.27101 13.1673 3.27197 13.2826 3.27245C13.3132 3.27269 13.3879 3.27197 13.4146 3.2763L13.5304 3.3232C13.5319 3.32392 14.4656 3.50669 14.8854 3.66878C14.9197 3.682 14.9615 3.69764 14.997 3.71158L15.0503 3.73299C15.3 3.83784 15.5688 3.96337 15.7833 4.11608L16.1331 4.36835C16.1391 4.37316 16.1479 4.38014 16.1542 4.38495L17.1375 5.46233C17.1424 5.46858 17.149 5.47748 17.1536 5.48373C17.1582 5.48999 17.1645 5.49913 17.1691 5.50562C17.7592 6.34035 18.1824 7.76692 18.8451 8.76951L19.378 9.58236C19.6611 10.0249 19.8783 10.4036 20.068 10.9214C20.3956 11.815 20.527 12.8879 20.2271 13.8015C20.115 14.143 20.0024 14.4385 19.7543 14.7083L18.9368 15.8761C18.9016 15.9262 18.8481 16.0038 18.7972 16.0738L18.4455 16.5466C18.4181 16.5817 18.3825 16.6262 18.3628 16.6508L17.938 17.126C17.9372 17.1267 17.8876 17.1781 17.8823 17.1837C17.8322 17.2359 17.863 17.2063 17.8088 17.2602C17.7514 17.3169 17.7772 17.2902 17.7115 17.3499C17.7057 17.3551 17.6974 17.3624 17.6916 17.3676L16.913 17.977C16.9067 17.9816 16.898 17.9881 16.8914 17.9927L16.5718 18.1985C16.4179 18.288 16.2863 18.3522 16.126 18.4308C15.9708 18.5068 15.814 18.5869 15.6644 18.6434L14.6619 18.9962C13.6863 19.2528 12.6308 19.3505 11.6304 19.1696C10.75 19.0104 9.80145 18.6543 9.3481 18.0845C9.33375 18.0665 9.29435 18.0129 9.28341 18.0009C9.14769 17.8525 9.01392 17.896 8.8303 17.9297C8.80525 18.0158 8.84319 17.9669 8.76463 17.9984C8.7318 18.2404 8.79041 18.3414 8.93074 18.4599C8.98158 18.5027 8.96966 18.4914 9.01733 18.5227L9.27173 18.6826C9.32329 18.7201 9.29532 18.7019 9.35929 18.7461L10.4187 19.2992C10.4197 19.2997 10.5002 19.3346 10.5226 19.344L10.8422 19.4375C11.1199 19.5207 11.6766 19.6205 11.9965 19.633C12.1874 19.6405 12.3717 19.647 12.5634 19.6458C12.7397 19.6446 12.9151 19.6381 13.0914 19.6323C13.3239 19.6244 13.4215 19.6056 13.5883 19.5792C14.0108 19.5126 13.9962 19.5631 14.5373 19.4272C14.8297 19.3538 15.0722 19.3173 15.3326 19.2062L16.2766 18.8329C16.2826 18.8293 16.2911 18.8228 16.2972 18.819L17.3353 18.1675C17.3413 18.1632 17.3501 18.1564 17.3559 18.1519L18.9003 16.4745L19.737 15.173C19.7411 15.1655 19.7465 15.1559 19.7506 15.1484L19.8776 14.9435C19.9627 15.0955 19.8175 15.3002 19.7667 15.4279C19.5422 15.993 19.1988 16.8162 18.8629 17.2941L18.4869 17.8176C18.482 17.8239 18.475 17.8325 18.4703 17.8388L17.6789 18.7707C17.6733 18.7762 17.6653 18.7839 17.66 18.7892C17.6546 18.7945 17.6463 18.8022 17.641 18.8074L17.5836 18.8623C16.7382 19.6492 15.3808 20.2102 14.298 20.3889C14.1127 20.4194 13.9011 20.4743 13.7496 20.5048C13.0963 20.6368 12.4036 20.6409 11.734 20.614C10.733 20.5738 10.6014 20.482 9.70538 20.2215C9.56164 20.1797 9.66841 20.2184 9.57502 20.1712C9.48406 20.1256 9.52492 20.1395 9.4539 20.1087L8.86021 19.7978C8.85365 19.7934 8.84513 19.7865 8.83857 19.7821L7.2387 18.269C6.91523 17.8679 6.66642 17.3895 6.4018 16.9336C6.32397 16.7996 6.23423 16.6399 6.14983 16.4776C5.98688 16.165 5.83098 15.8596 5.68797 15.5563C5.32777 14.7928 5.21248 14.2394 5.03956 13.4398C4.89679 12.7789 5.17478 11.6229 5.44086 11.1792L5.821 10.5462C5.88132 10.4471 5.90735 10.4159 5.96596 10.3195L6.64988 9.39285C6.67007 9.37025 6.67396 9.36496 6.70266 9.33321C6.76662 9.26227 6.80748 9.22042 6.86561 9.15886L7.0884 8.93184C7.09375 8.92631 7.10177 8.91861 7.10712 8.91332L7.46903 8.56293C7.50113 8.53191 7.52083 8.51243 7.56437 8.47131C7.63514 8.40421 7.67819 8.36405 7.73802 8.30729L7.85403 8.19811C7.85963 8.19282 7.86814 8.18537 7.87373 8.18032L9.35637 7.14983C9.39626 7.12241 9.56553 7.03007 9.59375 7.01828C9.68033 6.98245 9.7691 6.96634 9.85763 6.93291L10.5299 6.6739C10.7434 6.58661 11.547 6.45795 11.8097 6.44761C12.5075 6.42019 13.051 6.54693 13.6834 6.79271C13.7046 6.80088 13.8055 6.8384 13.8172 6.84633C13.9045 6.90718 13.8223 6.84633 13.895 6.9483C14.0738 7.19817 14.2885 7.00938 14.4089 6.96706L14.4284 6.6537C14.3749 6.63903 13.7311 6.30596 13.1965 6.15205C12.2154 5.86972 11.1484 6.00174 10.1862 6.32424L8.27407 7.26839L6.93055 8.40277C6.9072 8.42441 6.90452 8.42682 6.87193 8.45688L6.59053 8.73704C6.58518 8.74282 6.57813 8.75099 6.57278 8.75676L6.23763 9.17161C6.1975 9.22259 6.23106 9.17714 6.18801 9.23461L5.51285 10.3187C5.50774 10.3257 5.48196 10.3538 5.47588 10.3647L5.72493 9.58669C5.7298 9.57634 5.78428 9.47534 5.81565 9.42532L6.97092 7.58535C7.00132 7.54856 7.00789 7.53942 7.03927 7.50238L7.15844 7.35929C7.19127 7.31817 7.19687 7.30879 7.22411 7.27633C7.22922 7.27031 7.23627 7.2619 7.24138 7.25612L7.69522 6.77202C7.70057 6.76649 7.70835 6.75856 7.7137 6.75303L9.33205 5.55588C10.9341 4.75121 13.2339 4.43617 14.8255 5.66218L15.4732 6.36151C15.4778 6.36752 15.4846 6.37618 15.4893 6.38219L15.678 6.6436C15.7344 6.72681 15.7609 6.76313 15.8013 6.82036C15.8388 6.87375 15.892 6.9596 15.9198 7.00169L17.0018 8.54057C17.0064 8.54682 17.013 8.55596 17.0176 8.56221C17.0366 8.58818 17.0607 8.62209 17.0806 8.64879C17.5289 9.25193 17.954 9.8707 18.2872 10.5486C18.8359 11.665 18.8451 12.8465 18.3397 14.0162C18.2833 14.1468 18.2283 14.2945 18.1727 14.4123C17.9117 14.9628 17.5576 15.4832 17.149 15.9336L17.0042 16.088C16.9989 16.0935 16.9914 16.1017 16.986 16.1073L16.764 16.3357C16.7584 16.341 16.7501 16.3485 16.7447 16.3538C16.7391 16.359 16.7314 16.3667 16.7258 16.372L15.7274 17.1C15.2086 17.3999 14.584 17.5584 13.9971 17.6358C13.5937 17.6478 13.2714 17.6687 12.865 17.636C12.6736 17.6206 12.5967 17.5896 12.4323 17.5357L11.6701 17.207C11.341 17.037 11.001 16.8595 10.705 16.6313L10.4698 16.4543C10.4637 16.4492 10.4555 16.442 10.4496 16.437L9.76351 15.7737C9.7584 15.7679 9.75111 15.7598 9.746 15.754L9.5057 15.4685C8.85486 14.6655 8.18043 13.3905 8.23466 12.3294C8.26823 11.6739 8.49223 11.1284 8.77557 10.6713L9.33545 9.95872C9.34105 9.95319 9.34883 9.94549 9.35418 9.93996L9.50546 9.79134C9.70222 9.59582 9.95808 9.43326 10.1794 9.2654C10.1857 9.26058 10.1945 9.25409 10.2008 9.24952L10.5926 8.92823C10.5985 8.92294 10.6062 8.91525 10.6121 8.90996L10.9548 8.61584C10.9613 8.60959 10.9689 8.60237 10.9752 8.59564C11.0131 8.55524 10.983 8.62041 11.055 8.49247L9.98459 8.88494L9.47165 9.23341C9.45074 9.24856 9.41061 9.27598 9.3841 9.2957L8.69507 9.9996C8.69045 10.0054 8.68364 10.0138 8.67902 10.0196C8.6744 10.0253 8.66734 10.0338 8.66297 10.0395L8.25096 10.716C8.14881 10.9168 8.00167 11.2268 7.94208 11.4166C7.54904 12.6666 7.83871 13.7437 8.48007 14.8423L9.18563 15.823C9.1905 15.8288 9.19779 15.8372 9.20266 15.843L10.6588 17.1236C11.0851 17.4008 11.0333 17.3448 11.4677 17.5242C11.476 17.5276 11.4862 17.5317 11.494 17.5353L11.6188 17.624C11.0883 17.6161 10.7057 17.3955 10.2529 17.1962L9.40793 16.721C9.40161 16.7164 9.39285 16.7097 9.38653 16.7051L9.02852 16.4259C9.02244 16.4209 9.01417 16.4136 9.00809 16.4086C8.99957 16.4016 8.97477 16.3814 8.96625 16.3744L7.59015 14.9067C7.12974 14.2163 6.744 13.5124 6.93176 12.581C7.00716 12.2073 7.0738 11.969 7.18617 11.6371C7.30656 11.2821 7.40652 11.1085 7.58188 10.7959L7.99486 10.1617C7.99948 10.1557 8.00653 10.1473 8.01115 10.1412C8.01577 10.1352 8.02307 10.1268 8.02793 10.121C8.0362 10.1109 8.07658 10.0631 8.07925 10.0597L9.96197 8.45616C10.1266 8.34721 10.8538 8.11082 11.036 8.05815C12.7548 7.56226 14.2097 8.00236 15.5921 8.92823L16.4767 9.76825C16.6487 9.95896 16.8204 10.1701 16.9408 10.3916C17.2314 10.9264 17.5019 11.4627 17.5602 12.2181C17.6162 12.9434 17.4301 13.6908 17.176 14.2454L16.8476 14.8158C16.8269 14.8488 16.8097 14.8781 16.7895 14.9077L16.3235 15.4524C16.3181 15.4579 16.3108 15.4661 16.3055 15.4716C16.3001 15.4772 16.2924 15.4851 16.2873 15.4906L15.9451 15.7857C15.8954 15.829 15.9341 15.7997 15.8653 15.8562L14.2156 16.8374C13.8828 17.0161 13.4954 17.1462 13.1542 17.3155C13.0861 17.3491 13.1028 17.333 13.0579 17.3681C13.0022 17.4117 13.0068 17.3939 12.9725 17.4756C13.4283 17.4889 13.7571 17.427 14.1443 17.3191C14.5495 17.206 14.8525 17.0488 15.1916 16.828C15.2256 16.8059 15.2991 16.7679 15.3377 16.7472C15.4435 16.6902 15.3978 16.7207 15.4749 16.6623C15.5659 16.5935 15.5034 16.6298 15.5973 16.5601C15.6469 16.5231 15.5834 16.5683 15.6427 16.5286C15.6741 16.5077 15.6836 16.5048 15.7133 16.4858C15.768 16.4507 15.7218 16.4851 15.7794 16.4413L17.1906 15.0821L17.9024 13.591C17.9326 13.4924 18.0294 12.9448 18.0343 12.8566C18.0513 12.5593 18.0559 12.2525 18.026 11.9562C17.9812 11.5159 17.7879 10.9666 17.6237 10.6128C17.4807 10.305 17.2959 10.0157 17.2105 9.90076L16.9101 9.52632C16.905 9.52055 16.8975 9.51262 16.8924 9.50684L16.4823 9.09272C16.4767 9.08743 16.4687 9.07974 16.4631 9.07421L16.269 8.89408C16.2632 8.88879 16.2549 8.88134 16.2491 8.87629L16.0068 8.6673C14.5901 7.47761 12.3122 7.04642 10.5109 7.72652C10.4083 7.76524 10.285 7.79025 10.1967 7.83089C10.1483 7.85325 10.1096 7.87995 10.0563 7.90833C10.0349 7.91963 10.0026 7.93622 9.98192 7.94632L8.68972 8.76157C8.65591 8.78947 8.6564 8.78899 8.62819 8.81232L7.69108 9.79086C6.8014 11.0289 6.16029 12.6377 6.66958 14.1393C6.84129 14.6453 7.13315 15.121 7.46368 15.5491L8.81035 16.8275L9.59277 17.3583C9.75257 17.459 10.015 17.5949 10.1882 17.6646L10.6685 17.8527C10.6778 17.8558 10.6875 17.8594 10.6965 17.8623L10.8385 17.9044C11.1114 17.9689 11.2719 18.0425 11.5832 18.0581C12.0368 18.0809 13.7722 18.1427 14.201 18.0372C14.3048 18.0117 14.1703 18.0415 14.2802 18.0114L14.6538 17.9326C14.6636 17.9287 14.711 17.9068 14.7297 17.8989C14.8139 17.8638 14.7815 17.8667 14.9058 17.8421C15.1055 17.8027 15.1424 17.7666 15.291 17.7075L15.9718 17.4095C15.9806 17.4056 15.9908 17.402 15.9998 17.3984L16.3415 17.2195C16.3483 17.2147 16.3573 17.2082 16.3641 17.2034L16.9442 16.7316C16.951 16.727 16.9605 16.7215 16.9673 16.7171L17.7409 15.9259C17.7473 15.9165 17.7658 15.8889 17.7723 15.8798L18.6637 14.3827L18.9076 13.7329C18.9505 13.5627 19.0361 13.4056 19.0609 13.2233C19.1068 12.8862 19.1438 12.8563 19.1586 12.4066C19.1657 12.1904 19.1888 11.9475 19.155 11.7316C19.1251 11.5409 19.1771 11.6164 19.0745 11.5909C19.1251 11.3242 18.949 10.944 18.8719 10.7247L17.0008 7.72123C16.9965 7.71473 16.9901 7.70584 16.9855 7.69934C16.9811 7.69309 16.9746 7.68419 16.97 7.67794C16.9653 7.67169 16.9588 7.66279 16.9544 7.65629C16.9281 7.61974 16.924 7.61517 16.8914 7.56972L16.755 7.36915C16.7506 7.36266 16.744 7.35376 16.7396 7.34727C16.7353 7.34078 16.7289 7.33164 16.7246 7.32514C16.7049 7.29556 16.6932 7.27777 16.6664 7.234L15.84 6.03733C15.8069 5.99693 15.804 5.99381 15.7716 5.95485L15.6517 5.81152C15.6466 5.80575 15.6391 5.79757 15.6337 5.7918C15.6286 5.78603 15.6208 5.77833 15.6157 5.77256C15.6106 5.76703 15.6031 5.75885 15.5977 5.75332C15.5902 5.74538 15.5681 5.72326 15.5603 5.7158L14.2445 4.77766C14.1696 4.74303 14.127 4.73149 14.0239 4.68989C13.7676 4.58624 14.0098 4.63481 13.6267 4.55954C13.4594 4.52659 13.3784 4.46551 13.2057 4.44339C12.1402 4.30727 11.2038 4.41188 10.2244 4.71826L9.54583 4.97679C9.45487 5.00035 9.52249 4.99338 9.39845 4.99603C9.39796 5.11964 9.32402 5.06649 9.16837 5.13647L7.46149 6.3163C7.45589 6.32159 7.44762 6.32929 7.44203 6.33458C7.43425 6.34203 7.41211 6.36416 7.40433 6.37161C7.37441 6.40047 7.36882 6.40576 7.34693 6.42668C7.34134 6.43197 7.33356 6.43991 7.32796 6.4452L6.63237 7.21139C6.6275 7.21741 6.62021 7.22558 6.6151 7.23159L6.03965 8.0062C5.94261 8.16733 5.82976 8.39363 5.69696 8.52349C5.69161 8.52878 5.68334 8.53624 5.67775 8.54153C4.3464 9.94766 4.60007 9.64705 3.47496 11.3273C3.35262 11.5632 3.06684 11.9863 2.94329 12.4057L2.74434 12.9537C2.71175 13.0439 2.66992 13.1692 2.65411 13.2356C2.44835 14.0977 2.38682 15.102 2.60303 15.9485C2.7728 16.6125 2.95813 17.2719 3.30373 17.8703L3.61335 18.3864C3.61797 18.3931 3.62405 18.402 3.62867 18.409C3.63329 18.4157 3.63961 18.4246 3.64423 18.4313C3.64886 18.4381 3.65518 18.4472 3.65956 18.4539L4.1635 19.185C4.16812 19.191 4.17493 19.1997 4.17931 19.2059L4.522 19.6496C4.53951 19.6696 4.57477 19.7078 4.57526 19.7086C4.65698 19.8069 4.64385 19.753 4.67498 19.888L5.37957 20.5923C5.45983 20.6652 5.4951 20.6958 5.57511 20.7717L7.19152 21.9319C7.29683 22.0009 7.10858 21.8833 7.2353 21.9634L9.12799 22.9227C9.21652 22.9773 9.12094 22.932 9.25033 22.9811L9.51276 23.0569C9.5614 23.0662 9.55751 23.0621 9.6115 23.0766C9.62196 23.0795 9.6312 23.0828 9.64117 23.0857L12.0069 23.5725C12.3739 23.6319 14.2618 23.6194 14.7601 23.4813C14.8073 23.4683 14.7662 23.4618 14.9029 23.4414C14.9469 23.4349 15.0065 23.4337 15.052 23.4318C15.3942 23.4178 15.8799 23.2795 16.2192 23.1737L16.925 22.9433C17.1006 22.8613 17.3992 22.8231 17.9713 22.5559L18.814 22.1298C18.8211 22.125 18.8301 22.1185 18.8376 22.1139L19.5308 21.713C19.5378 21.7087 19.5475 21.7036 19.5544 21.6993L19.7319 21.5767C19.739 21.5721 19.7487 21.567 19.7557 21.5627L19.9807 21.4107C20.0773 21.3499 19.9819 21.4213 20.0685 21.353L20.8648 20.6517C20.8704 20.6465 20.8787 20.639 20.8843 20.6337L21.5251 20C21.5487 19.9757 21.548 19.9762 21.5803 19.9425L22.3141 19.1737C22.382 19.1083 22.3401 19.1754 22.3973 19.0804L22.4518 18.9525C22.479 18.8784 22.4535 18.9154 22.4946 18.8392L22.8066 18.4316C22.8207 18.4188 22.8487 18.3998 22.8742 18.3818C23.0073 18.2875 22.9936 18.1961 23.0963 18.0518C23.1007 18.0458 23.1072 18.0372 23.1114 18.0309L23.2434 17.7878C23.2605 17.7606 23.2758 17.7423 23.2911 17.7209C23.2955 17.7147 23.303 17.7065 23.3074 17.7005L23.402 17.5391C23.4059 17.5314 23.4108 17.5216 23.4147 17.5139C23.4198 17.5035 23.4348 17.4739 23.4402 17.4638L24.1642 15.8745C24.1859 15.8127 24.1818 15.7973 24.1985 15.7251C24.2012 15.7133 24.2027 15.7037 24.2056 15.6922L24.5444 14.6836C24.5471 14.6756 24.5505 14.666 24.5527 14.6578C24.567 14.6032 24.5651 14.5874 24.5697 14.5321C24.6001 14.1747 24.7122 13.89 24.7808 13.5098L24.8221 13.0901C24.8248 13.0812 24.8292 13.0721 24.8319 13.0634C24.8343 13.0552 24.8387 13.0461 24.8409 13.0382C24.9119 12.7792 24.8696 12.3104 24.8739 12.0336C24.8793 11.6854 24.9126 10.9406 24.8645 10.6294C24.8387 10.4633 24.8686 10.6754 24.8287 10.4943C24.8144 10.4291 24.8146 10.3899 24.8017 10.3271L24.5018 8.871C24.4155 8.59612 24.2885 8.39002 24.2304 8.11226C24.1358 7.66014 23.9305 7.24362 23.741 6.83647C23.6581 6.65827 23.6036 6.54164 23.5127 6.34973C23.4733 6.26652 23.4348 6.22443 23.377 6.11597L22.8779 5.19274C22.8494 5.14128 22.8348 5.10857 22.8142 5.07058C22.802 5.04797 22.7699 4.99386 22.7599 4.97438C22.6882 4.83322 22.7251 4.84885 22.6799 4.70792L22.5622 4.50663C22.22 4.49293 21.8826 4.68483 22.094 4.99506C22.2107 5.16629 22.3482 5.21944 22.4433 5.39596L23.096 6.61499C23.4052 7.24891 23.7223 7.98071 23.9536 8.70819C24.4838 10.3755 24.5979 12.2809 24.2759 13.9684C24.1837 14.451 24.065 15.0188 23.9069 15.4635L23.5766 16.2436C23.3723 16.6782 23.1987 17.1017 22.9608 17.5047C22.902 17.6045 22.8842 17.6435 22.8263 17.7467L22.7011 17.9566C22.6967 17.9633 22.6904 17.9722 22.686 17.979C22.641 18.0477 22.5853 18.1331 22.5512 18.181L21.3821 19.6335C21.3768 19.6393 21.3692 19.6475 21.3639 19.653L21.2204 19.8093C21.2089 19.8213 21.1951 19.8348 21.1829 19.8468L20.5479 20.4493C20.5423 20.4543 20.5343 20.462 20.5284 20.4668L19.8136 21.0293C19.8075 21.0339 19.7988 21.0408 19.7927 21.0454L19.7068 21.106C19.6198 21.1633 19.7903 21.0534 19.6609 21.1351L19.613 21.1647C19.5991 21.1734 19.5259 21.2191 19.4967 21.2383C18.9157 21.6221 18.3176 21.9427 17.6797 22.2373C17.5729 22.2866 17.5359 22.2979 17.4109 22.3453L15.4002 22.9318C14.7465 23.0619 14.7389 23.0345 14.1039 23.1247C13.7016 23.1817 13.0625 23.148 12.6393 23.1482C11.3439 23.1485 10.0948 22.793 8.95823 22.3428L8.44456 22.1091C8.26361 22.0365 8.10187 21.9602 7.96494 21.8744L7.46562 21.5841C7.4593 21.5798 7.45054 21.573 7.44422 21.5685L7.40166 21.5358C7.39533 21.531 7.38658 21.524 7.38025 21.5194C7.33574 21.4862 7.30704 21.4672 7.26983 21.4439L6.93322 21.2181C6.87169 21.1738 6.86926 21.1707 6.8211 21.1399C6.75081 21.095 6.77003 21.1106 6.70752 21.0671L6.01509 20.5219C6.00925 20.5168 6.00123 20.5091 5.99539 20.5041L5.70013 20.2374C5.69453 20.2323 5.68651 20.2246 5.68091 20.2193C5.67532 20.2141 5.66705 20.2068 5.66146 20.2015L5.12711 19.6479C5.12176 19.6422 5.11422 19.6342 5.10887 19.6285L4.76886 19.2192C4.44392 18.8144 4.15912 18.3895 3.91518 17.9402C3.82251 17.7695 3.63402 17.5199 3.64496 17.3224C3.57151 17.2969 3.57078 17.309 3.49831 17.1209C2.88978 15.5414 2.69181 14.5917 3.21156 12.9133C3.23223 12.8465 3.27917 12.7816 3.31054 12.6914C3.34776 12.5841 3.37305 12.4999 3.40175 12.4384C3.92272 11.3192 4.03508 11.2102 4.64944 10.3187C4.71827 10.2283 5.20251 9.63406 5.22294 9.57779C5.29201 9.60785 5.30563 9.50997 5.27231 9.70645C5.25967 9.78052 5.25067 9.76609 5.24167 9.78677C4.85325 10.7114 4.79756 11.3908 4.60323 12.3655C4.46752 13.6084 4.67279 14.6504 5.22343 15.746C5.56222 16.4201 5.82198 16.8263 6.19045 17.478C6.47525 17.9816 6.79313 18.4811 7.18495 18.9178L7.92505 19.7326C8.02355 19.7393 8.27455 19.9589 8.2782 19.9615L9.09297 20.4543C9.10051 20.4579 9.11024 20.463 9.11778 20.4663C9.12556 20.4699 9.13529 20.4745 9.14307 20.4781L11.2848 21.0416C11.7146 21.0906 12.7227 21.0851 13.1082 20.9995C13.1989 20.9793 13.2991 20.979 13.3942 20.9742C13.8695 20.9511 14.7137 20.72 14.8063 20.6924C14.9335 20.6546 15.0768 20.658 15.2032 20.6008C15.2378 20.5851 15.2852 20.5625 15.3054 20.5534L15.661 20.419C15.67 20.4161 15.6797 20.4122 15.6885 20.4093C15.6975 20.4062 15.7072 20.4026 15.7162 20.3997L16.1014 20.261C16.2736 20.1477 15.9842 20.2706 16.414 20.1167C16.4225 20.1135 16.4322 20.1097 16.4402 20.1063C16.5742 20.0505 16.5881 19.9938 16.7175 19.9048C16.7243 19.9 16.7338 19.8942 16.7406 19.8896L17.2241 19.5472C17.2314 19.5429 17.2414 19.538 17.2487 19.534C17.2562 19.5299 17.2664 19.5255 17.2742 19.5215C17.282 19.5174 17.2922 19.5133 17.2998 19.5092L17.4386 19.4243C17.4445 19.4195 17.4522 19.4115 17.4578 19.4065L18.4572 18.4191C18.4626 18.4135 18.4706 18.4058 18.4762 18.4003L18.5883 18.2878C18.5939 18.2822 18.6014 18.2743 18.607 18.2688L18.8641 18.0006C19.0023 17.8585 19.0922 17.6695 19.1813 17.499C19.19 17.4821 19.2187 17.4417 19.2275 17.429L19.6137 16.8061C19.6176 16.8001 19.6242 16.7914 19.6278 16.7854L20.2852 15.3526C20.2879 15.3413 20.2893 15.3314 20.2923 15.3204L20.4165 14.9128C20.579 14.6477 20.4586 14.7875 20.518 14.4989L20.6191 14.1134C20.6204 14.1102 20.6666 14.0112 20.6668 14.0109L20.777 13.4898C20.8483 13.2443 20.8239 12.5757 20.82 12.2938L20.7529 11.7703C20.6836 11.2658 20.5542 10.7877 20.3348 10.3158C20.0503 9.7038 19.6621 9.14371 19.3019 8.57856L18.95 7.99322C18.4404 7.22125 18.195 6.31558 17.7251 5.51764C17.6984 5.47195 17.6495 5.38417 17.6123 5.3267C17.3849 4.97438 17.1249 4.64924 16.8206 4.35825C16.815 4.35296 16.8072 4.34527 16.8017 4.33998L16.7253 4.26591C16.7173 4.25821 16.6946 4.23633 16.6866 4.22887L15.974 3.701C15.2896 3.27799 14.4079 2.93914 13.6199 2.84222C12.7312 2.78234 12.3815 2.76839 11.4684 2.85641C10.7884 2.92206 10.2996 3.13586 9.65966 3.30324C9.31065 3.39438 8.76852 3.64016 8.43094 3.8097L7.58698 4.31232C7.58042 4.31665 7.57093 4.32242 7.56437 4.32651L7.13752 4.61726C7.13144 4.62183 7.12317 4.62904 7.11734 4.63361L6.53484 5.06456C6.529 5.06937 6.52073 5.07707 6.51514 5.08188L6.03017 5.49744C6.02239 5.5049 5.99977 5.52678 5.99174 5.53448L4.22941 7.67289C4.22503 7.67986 4.21944 7.68948 4.21506 7.69646L3.55473 8.9049C3.55084 8.91164 3.54476 8.92054 3.54111 8.92751L3.35092 9.33826C2.77645 10.3315 3.5056 10.768 3.72109 9.72473L4.6222 7.94079C4.6779 7.84676 4.62828 7.92805 4.67911 7.85061L5.36157 6.88529C5.41338 6.82084 5.38468 6.85836 5.43016 6.80545C5.46421 6.76601 5.46737 6.76192 5.49972 6.72441L6.22498 5.951C6.23058 5.94571 6.2386 5.93777 6.2442 5.93248L6.34124 5.84134C6.34683 5.83605 6.35486 5.82859 6.36045 5.8233L6.4575 5.736C6.48012 5.71749 6.51368 5.69368 6.54238 5.67131C6.56038 5.65712 6.6061 5.62009 6.62653 5.60277L7.46051 4.93518C7.50697 4.89887 7.47535 4.91691 7.54248 4.86881C7.63636 4.80147 7.61739 4.81494 7.75042 4.77742L7.74872 4.78055ZM12.9299 9.44768C13.1145 9.44768 13.2952 9.46332 13.4711 9.4929C13.7817 9.53137 14.083 9.61554 14.3428 9.75118C14.5298 9.84882 14.55 9.83463 14.7813 9.99167C15.0493 10.1737 15.2813 10.4236 15.4747 10.6843C15.5165 10.7405 15.5844 10.8355 15.6435 10.9337C15.7128 11.0431 15.7755 11.1571 15.8312 11.2749C15.859 11.3141 15.8782 11.3658 15.8967 11.4233C16.0474 11.7905 16.1306 12.1919 16.1306 12.6125C16.1306 14.3604 14.6976 15.7775 12.9297 15.7775C11.5083 15.7775 10.3037 14.8615 9.88585 13.5939L9.755 13.2931C9.71365 13.099 9.69638 12.4494 9.73165 12.2207C9.75159 12.0918 9.76229 12.1176 9.77519 12.0507C9.80315 11.9052 9.76351 11.7751 9.80802 11.6332L9.88852 11.4824C9.98897 11.3177 10.0554 11.1881 10.1441 11.0527C10.6943 10.0944 11.7355 9.44768 12.9297 9.44768H12.9299ZM18.474 3.82894C18.5285 3.96265 18.6474 3.99392 18.8405 4.074C19.3401 4.28154 19.9034 4.23344 20.3443 4.0372C20.5907 3.92754 20.7123 3.86622 20.9071 3.6986L21.0623 3.55334C21.2717 3.34652 21.4694 3.06251 21.5066 2.77561C21.5346 2.34514 21.7367 1.83699 21.1907 1.19416L20.9176 0.941171C20.4966 0.646093 19.9391 0.474866 19.3926 0.566251C19.3167 0.578997 19.237 0.602805 19.1256 0.627576C19.002 0.655232 18.9993 0.665092 18.877 0.718239L18.2906 1.07296C17.9538 1.3779 17.774 1.6369 17.6658 2.09335C17.5768 2.46875 17.6317 2.92976 17.8394 3.23927L18.0897 3.5507C18.1364 3.59879 18.1157 3.57835 18.1646 3.62597L18.3526 3.77676C18.4655 3.84097 18.3307 3.79912 18.474 3.82894ZM6.30403 4.36234L6.59005 4.1168C6.59613 4.11175 6.60464 4.10454 6.61048 4.09925L6.89358 3.89411C6.90355 3.88834 6.93249 3.87199 6.94247 3.86622L7.38074 3.52689C7.38852 3.52304 7.39825 3.51799 7.40603 3.51414C7.57774 3.43142 7.50745 3.4937 7.68281 3.37105L8.02501 3.18612C8.10868 3.15389 8.16802 3.15486 8.23904 3.12744L8.28574 3.10459C8.75539 2.84246 8.47083 3.0185 8.87262 2.82803L9.10245 2.72174C9.76035 2.4156 9.1725 2.65897 9.91017 2.40838L11.6188 2.03755C12.2623 1.92476 12.7519 1.93991 13.43 1.95795C13.6756 1.96444 14.7207 2.03683 14.9277 2.10104C14.9364 2.10369 14.9462 2.10777 14.9549 2.11042C14.9642 2.11331 14.9741 2.11691 14.9834 2.1198C14.9931 2.12293 15.0033 2.12581 15.0133 2.1287L15.6663 2.36678C15.7918 2.45239 15.8227 2.53777 16.0705 2.51059C16.1345 2.50362 16.1445 2.50241 16.199 2.47428C16.2659 2.43989 16.3427 2.34297 16.3563 2.25808C16.4293 1.79995 15.793 1.90552 15.5965 1.83843C15.2239 1.71121 14.8394 1.66768 14.4386 1.56692L13.5197 1.45846C13.017 1.45509 12.5897 1.44114 12.1412 1.50487C11.5275 1.59241 10.9052 1.59385 10.312 1.79514L8.82349 2.29343C8.81546 2.29656 8.80573 2.30089 8.79722 2.30377L7.89319 2.71741C7.88541 2.72126 7.87544 2.72559 7.86765 2.72943L7.66725 2.83116C7.65119 2.83982 7.6169 2.85834 7.59355 2.87084C7.58601 2.87493 7.57653 2.87998 7.56899 2.88407L6.95609 3.24841C6.94952 3.25297 6.94076 3.25947 6.9342 3.2638C6.92763 3.26837 6.91839 3.27438 6.91182 3.27871L6.70874 3.4141C6.70217 3.41867 6.69317 3.42492 6.6866 3.42925C6.63675 3.46292 6.61169 3.47446 6.57205 3.5026L5.45448 4.40852C5.44816 4.41308 5.43867 4.41886 5.4321 4.42343L4.84571 4.96476C4.84012 4.97005 4.83209 4.97751 4.8265 4.98304L4.62196 5.1913C4.54924 5.26633 4.50132 5.30601 4.43687 5.38225L4.02268 5.87044C4.01781 5.87717 4.01197 5.88655 4.00735 5.89328L3.93293 6.00246C3.92831 6.00824 3.92101 6.01641 3.91615 6.02218L3.73836 6.25955C3.73398 6.2658 3.7279 6.27518 3.72328 6.28119L3.55765 6.49089C3.55327 6.49763 3.54768 6.50701 3.54306 6.51374L2.88054 7.4615C2.87787 7.46583 2.82922 7.55385 2.82655 7.55866L2.72342 7.75489C2.51231 8.16685 2.27226 8.55331 2.11539 8.98306L1.8121 9.72232C1.77197 9.81443 1.7603 9.85194 1.72576 9.97796L1.59613 10.369C1.50881 10.6367 0.938717 11.5988 1.4823 11.6587C1.54481 11.6657 1.58567 11.6582 1.63771 11.6354L1.7727 11.5111C1.77708 11.5038 1.78218 11.4945 1.78583 11.4865C1.81453 11.4267 1.79848 11.4598 1.81453 11.3988C1.90428 11.058 1.93322 10.684 2.09277 10.3286C2.14968 10.2021 2.237 9.94501 2.31288 9.76777C2.36274 9.65138 2.38049 9.61194 2.4323 9.47799L2.94183 8.41287L3.96455 6.74052C4.17639 6.43149 4.41328 6.10972 4.67182 5.83773L5.44135 5.06961C5.45691 5.05519 5.47418 5.03907 5.49947 5.0155L5.8604 4.70263C5.88789 4.68219 5.94261 4.63505 5.96304 4.61654L6.23763 4.39C6.24517 4.38591 6.26414 4.39048 6.26973 4.37581C6.27557 4.3609 6.29162 4.36571 6.30306 4.3621L6.30403 4.36234ZM10.8769 0.169448V0.246644C10.3759 0.279831 9.3481 0.612185 8.81206 0.801929L7.97953 1.13332C7.97151 1.13669 7.96178 1.14126 7.954 1.14486L7.76186 1.24803C7.75505 1.25188 7.74532 1.25741 7.73851 1.26126C7.71808 1.27232 7.69351 1.28435 7.66457 1.29878C7.65679 1.30262 7.64682 1.30695 7.63903 1.3108L7.5381 1.35986C7.29051 1.48251 6.96217 1.60588 6.74181 1.77061L5.80909 2.3764C5.7692 2.40357 5.71375 2.43436 5.67118 2.46466L5.24215 2.78571C5.23632 2.79076 5.22805 2.79821 5.22221 2.8035L5.05707 2.93697C5.00697 2.97377 5.03396 2.9514 4.99213 2.98483L4.54097 3.39727C4.49451 3.44055 4.52443 3.4141 4.48259 3.45138C4.47676 3.45643 4.46898 3.46412 4.46314 3.46917C4.4573 3.47422 4.44903 3.48144 4.44295 3.48625L4.11826 3.76185C4.0847 3.79503 4.0363 3.84193 4.00662 3.8756L2.03926 6.4428C1.98235 6.54284 2.01762 6.47815 1.9517 6.57771C1.7603 6.86726 1.60512 7.19913 1.47379 7.52908L1.2904 7.90328C1.25003 7.98648 1.24614 7.98745 1.21185 8.04564L1.0754 8.40012C1.072 8.40782 1.06689 8.4172 1.06324 8.42465C1.05351 8.44509 1.03284 8.4879 1.027 8.49992C0.72031 9.16223 0.758251 9.19397 0.507254 9.92289C0.252365 10.6636 0.324843 10.7146 0.18232 11.3466C0.12711 11.5909 0.157268 11.8737 0.0991402 12.1267C-0.100782 12.9973 0.0458762 14.4606 0.153863 15.3545C0.175753 15.5349 0.196669 15.5282 0.218802 15.6922C0.269634 16.0673 0.423102 16.443 0.470042 16.7984C0.675559 17.0346 0.440613 17.6853 0.984441 17.6918C1.0523 17.542 1.26389 17.4617 1.16466 17.2681L1.03527 16.9841C0.895668 16.6245 0.74682 16.1525 0.68553 15.7636C0.660236 15.6027 0.63786 15.5019 0.616214 15.3875C0.524766 14.9031 0.451315 13.808 0.454477 13.3041L0.534737 12.0346C0.5773 11.601 0.630077 11.355 0.731498 10.9363C0.764089 10.8016 0.762873 10.6727 0.804949 10.5482C0.824892 10.4895 0.88448 10.3447 0.909288 10.2095C0.953553 9.97002 1.05741 9.75046 1.12575 9.52416L1.36069 8.89793C1.40861 8.76398 1.4356 8.6976 1.48935 8.58121C1.55283 8.44365 1.55721 8.41166 1.61218 8.24765L1.76638 7.96003C1.82621 7.83931 1.85345 7.78544 1.90744 7.6486C1.93565 7.57693 1.9162 7.62142 1.94027 7.56924L2.05507 7.34703C2.06431 7.32875 2.08766 7.28234 2.09277 7.272L2.11758 7.22197C2.12147 7.21452 2.12609 7.20466 2.12998 7.19745L3.50682 5.13358C3.51193 5.12781 3.51947 5.11964 3.52482 5.1141C3.52992 5.10857 3.53746 5.1004 3.54281 5.09463L4.011 4.55064C4.01635 4.54487 4.02414 4.53694 4.02949 4.5314L4.47043 4.0728C4.48868 4.05404 4.51908 4.02325 4.52637 4.01604C4.53197 4.01051 4.53999 4.00305 4.54534 3.99752L6.02652 2.77777C6.25198 2.57961 6.52997 2.42377 6.78292 2.25976L8.23661 1.50343C8.29595 1.47794 8.33341 1.46784 8.40175 1.44235L9.22576 1.16675C9.23355 1.16362 9.24328 1.15905 9.25106 1.15569L10.2867 0.839204C10.4569 0.796398 10.8371 0.698038 11.0343 0.688178C11.1126 0.684331 11.8795 0.500358 12.3734 0.485448C13.0296 0.465487 13.6462 0.436629 14.2678 0.533786C14.3877 0.552544 14.5502 0.547974 14.6757 0.554708L15.6602 0.740124L15.8974 0.905819C16.2603 1.02222 16.5395 0.652105 16.3969 0.414744L16.3461 0.354863C16.1586 0.168245 15.9531 0.313259 15.7111 0.242315C15.364 0.140589 15.2662 0.194939 15.0206 0.133374C14.9625 0.118705 14.7657 0.0953775 14.6648 0.0730122C14.2557 -0.0171705 12.6582 -0.0229422 12.3601 0.0508874C12.2635 0.0749361 10.8971 0.174257 10.8767 0.169448H10.8769ZM4.84936 16.954C4.76132 16.9199 4.7657 16.8905 4.69225 16.6926C4.65382 16.589 4.60469 16.4836 4.57185 16.4014C4.48284 16.1796 4.53926 16.2145 4.52029 16.0274C4.50084 15.835 4.44149 15.9122 4.39625 15.7518C3.91907 15.6809 3.72547 15.8581 3.90569 16.2261L3.94485 16.2999C3.95993 16.3283 3.97744 16.3588 3.99714 16.3978L4.03265 16.4716C4.45754 17.4547 4.46995 17.5163 5.06898 18.4744L6.31813 19.9632C6.35899 20.0007 6.35535 19.9967 6.39694 20.0339L6.80043 20.3776C6.80651 20.3826 6.81502 20.3896 6.82086 20.3947C6.86804 20.4351 6.81648 20.3848 6.88312 20.4495C6.96509 20.5289 6.89358 20.4404 6.95949 20.5332L7.17936 20.6772C7.18519 20.6818 7.19371 20.689 7.19954 20.6936L7.7514 21.08C7.80466 21.1219 7.7548 21.0894 7.83579 21.1471L8.98377 21.7582C9.18563 21.8373 9.37339 21.9643 9.58669 22.0155C9.64823 22.0302 9.65504 22.0302 9.71049 22.047L10.0566 22.1216C10.5245 22.2474 10.3207 22.2765 10.7549 22.3169C10.9283 22.333 10.9054 22.352 10.9971 22.3746C11.4473 22.4857 14.1029 22.4306 14.4726 22.3659C14.6777 22.3301 14.6409 22.225 14.8632 22.1875C15.0252 22.1601 14.9831 22.187 15.1186 22.1307L15.9665 21.8506C15.9781 21.8467 16.0102 21.8345 16.0217 21.8306L16.6489 21.5593C16.6569 21.5557 16.6667 21.5512 16.6749 21.5478C16.6834 21.5442 16.6932 21.5401 16.7017 21.5367L17.0247 21.4069C17.0607 21.3893 17.0787 21.3802 17.1249 21.3571C17.1315 21.3537 17.2227 21.3097 17.2273 21.3078C17.5517 21.1707 17.3863 21.2806 17.6125 21.0938L17.7789 20.9949C17.8827 20.9389 17.883 20.9341 17.9547 20.8718C18.1727 20.682 18.169 20.8357 18.4151 20.5854L18.6284 20.419C18.6343 20.4139 18.6425 20.4064 18.6484 20.4014L19.0122 20.1239C19.0198 20.1191 19.0293 20.1138 19.0373 20.1094L19.1185 20.0748C19.1516 20.0589 19.1854 20.0392 19.1876 20.0375L20.0379 19.2814C20.0415 19.2766 20.0641 19.2463 20.0714 19.2379L21.127 18.0069C21.1766 17.9451 21.1445 17.9898 21.1849 17.9188L21.4979 17.4367C21.7129 17.2431 21.5604 17.3479 21.7107 17.13L21.8119 16.9742C21.816 16.9665 21.8209 16.9569 21.825 16.9492L22.1422 16.4026C22.1553 16.3761 22.176 16.3343 22.191 16.3028L22.2506 16.177C22.2543 16.1693 22.2591 16.1594 22.2628 16.1517L22.4092 15.8502C22.4129 15.8425 22.4177 15.8329 22.4214 15.8252C22.4313 15.8047 22.4564 15.7537 22.4707 15.7251C22.4746 15.7174 22.4795 15.7078 22.4834 15.7001C22.4873 15.6924 22.4921 15.6828 22.496 15.6751L22.56 15.5529C22.5634 15.5455 22.5683 15.5359 22.5717 15.5284L22.8458 14.7579C22.8677 14.6658 22.9297 14.6525 22.9747 14.4808L23.0683 13.9732C23.08 13.8873 23.0761 13.9152 23.098 13.8445C23.1437 13.6969 23.0977 13.908 23.1345 13.7385L23.2157 13.2608C23.251 12.9958 23.2617 12.7053 23.3188 12.498C23.5012 11.8355 23.3303 10.4801 23.2181 9.76441C23.1972 9.63021 23.1396 9.47077 23.1084 9.3373C23.0355 9.02419 22.9628 8.71203 22.8567 8.42345C22.8528 8.41263 22.8412 8.38208 22.8373 8.37102C22.8343 8.36261 22.8307 8.35299 22.828 8.34457C22.5843 7.63177 22.2908 6.90261 21.9461 6.23141C21.9345 6.20856 21.9067 6.15469 21.8948 6.13257L21.8681 6.08375C21.8625 6.07389 21.8462 6.04551 21.8406 6.03565C21.6285 5.6742 21.879 5.29255 21.1919 5.40437C21.1637 5.477 21.2114 5.44574 21.1282 5.4657C21.0467 5.88222 21.2267 5.88414 21.4466 6.30283L21.7841 6.97572C22.1604 7.67313 22.3876 8.40493 22.5962 9.18676C22.6957 9.55903 22.7293 9.91856 22.8047 10.2968C22.8893 10.7218 22.8932 10.9755 22.9088 11.4387C22.9654 13.1375 22.5554 14.699 21.8036 16.1804L21.0701 17.3912C21.0657 17.3977 21.0594 17.4066 21.0547 17.4131L20.7293 17.8724C20.7247 17.8784 20.7179 17.8873 20.7133 17.8934L20.5352 18.1293C20.5306 18.135 20.5233 18.1435 20.5187 18.1492L20.1704 18.5525C20.1651 18.5583 20.1573 18.5665 20.1519 18.572L20.0442 18.6858C20.0388 18.6913 20.0311 18.6992 20.0257 18.7048L19.2725 19.4491C19.2455 19.4734 19.1944 19.519 19.1732 19.5378C19.1672 19.5431 19.1591 19.5508 19.153 19.5561L18.312 20.177C18.3059 20.1813 18.2967 20.1876 18.2906 20.1917L17.8832 20.4613C17.8769 20.4656 17.8679 20.4719 17.8616 20.4759C17.8309 20.4961 17.8122 20.5087 17.7713 20.5332L16.9167 20.9964C16.1379 21.3881 14.843 21.8532 13.9607 21.9311C13.5513 21.9672 13.2091 22.0146 12.7519 22.0283C11.4782 22.0668 10.0829 21.8051 8.9502 21.2299C8.94339 21.2265 8.93391 21.221 8.92734 21.2174L8.2101 20.8088C8.20329 20.8047 8.19405 20.7989 8.18724 20.7946L7.54442 20.3507C7.51597 20.3292 7.50089 20.3194 7.45614 20.2872L6.88239 19.8146L5.31196 17.9006C5.16724 17.6613 4.84061 17.1945 4.85009 16.9528L4.84936 16.954ZM9.47092 24.0885C9.16447 24.0609 8.65591 23.8343 8.32076 23.6814L6.96436 22.9756C6.9573 22.9712 6.94806 22.9652 6.94076 22.9607L6.75373 22.8481C6.74717 22.844 6.73792 22.838 6.73136 22.8339L4.96951 21.4831C4.96148 21.4757 4.93789 21.4535 4.92987 21.4463L4.58791 21.1152C4.5541 21.0788 4.57939 21.1055 4.53464 21.0558L3.46085 19.7338C2.95496 19.0034 2.55488 18.2399 2.2207 17.4107C2.21632 17.4001 2.19711 17.3588 2.1886 17.3383C2.09715 17.1154 1.84907 16.3069 1.85004 16.0984C1.85077 15.9113 1.9303 15.9661 1.88288 15.6931L1.70752 15.5705C1.36969 15.393 1.1238 15.8153 1.25052 16.0596L1.28165 16.1049C1.4502 16.3583 1.4913 16.6527 1.57399 16.9605C1.72746 17.5329 1.96557 18.117 2.23724 18.6658L2.35009 18.8856C2.43376 19.0405 2.52107 19.1708 2.57287 19.3344L3.1814 20.2311C3.18626 20.2374 3.19307 20.2463 3.19794 20.2523L3.91639 21.1084C3.9215 21.1142 3.92855 21.1226 3.93366 21.1284L4.27854 21.4949C4.28389 21.5004 4.29191 21.5079 4.29727 21.5134C4.30262 21.5189 4.31016 21.5269 4.31575 21.5324L4.54388 21.7539C4.54924 21.7592 4.55726 21.7671 4.56261 21.7724L5.00161 22.1596C5.0077 22.1646 5.01645 22.1714 5.02253 22.1764L5.30831 22.4123C5.38808 22.5035 5.31171 22.3575 5.35063 22.4758C5.4844 22.5119 5.5542 22.5891 5.65805 22.6665L5.74464 22.7303C5.8103 22.776 5.88619 22.8236 5.94261 22.8688C5.99174 22.908 5.95185 22.8818 6.02628 22.9371C6.09462 22.9878 6.04233 22.9494 6.11627 22.997L6.51319 23.2372C6.77659 23.4298 7.00789 23.5123 7.25135 23.6631L8.8534 24.3913C8.91007 24.4125 9.0329 24.4519 9.08008 24.4661C9.17688 24.4954 9.27052 24.5099 9.35272 24.5363L9.60469 24.6188C9.61272 24.6219 9.62269 24.6263 9.63072 24.6294L10.068 24.7492C10.4061 24.8564 10.8186 24.8843 11.1598 24.9502L11.7321 25.0156C11.913 25.0404 11.7883 25.0555 11.9962 25.0724L12.9024 25.0885C13.1165 25.0902 13.3298 25.0858 13.5433 25.0851L14.1183 25.0325C14.5685 24.9682 14.8494 25.0195 15.2893 24.9084C15.5559 24.8408 15.9652 24.785 16.3403 24.6763L16.8031 24.5116C16.8873 24.4851 16.9797 24.4851 17.0668 24.4596L18.2001 24.0219C18.4404 23.932 18.6323 23.8012 18.8894 23.7218L19.6538 23.3288C19.6616 23.325 19.6713 23.3199 19.6789 23.3161L19.9068 23.1728C19.9138 23.1682 19.9231 23.1622 19.9301 23.1576L21.1233 22.327C21.2306 22.2228 21.0975 22.3402 21.1868 22.2455L21.8569 21.7436C21.8627 21.7392 21.8712 21.7323 21.8766 21.7277C21.8822 21.7231 21.8899 21.7154 21.8953 21.7104C21.9009 21.7053 21.9084 21.6974 21.914 21.6921L22.0638 21.5427C22.0694 21.5372 22.0775 21.5295 22.0831 21.524L22.3088 21.3001C22.3141 21.2946 22.3221 21.2869 22.3275 21.2816L22.8791 20.6712C22.8844 20.6654 22.892 20.6573 22.8973 20.6515L23.608 19.7908C23.6124 19.785 23.6192 19.7764 23.6233 19.7706L23.9415 19.3036C23.9585 19.2774 23.9731 19.2483 23.9981 19.2103C24.0098 19.1927 24.0404 19.1537 24.0623 19.122C24.1195 19.0388 24.0757 19.0987 24.1314 19.0063L24.6794 17.946C24.6837 17.9376 24.6891 17.9285 24.694 17.9205L24.9328 17.4622C24.9756 17.315 24.9819 17.2361 25.0551 17.1204C25.1417 16.9834 25.1546 16.8874 25.213 16.7243L25.2599 16.5476C25.2752 16.4815 25.2534 16.531 25.2855 16.4548C25.3832 16.2222 25.3363 16.4233 25.4144 16.0678L25.9969 12.896C26.0008 12.2648 26.0149 11.6849 25.9234 11.0777C25.9025 10.9399 25.8312 10.7776 25.8159 10.6193C25.7714 10.1617 25.7819 9.91591 25.635 9.51743C25.5442 9.27141 25.5705 9.19012 25.5528 8.94386L25.4978 8.75412C25.4937 8.74739 25.4876 8.73777 25.483 8.73127C25.4168 8.63941 25.4552 8.69135 25.408 8.65408C25.2986 8.56798 25.1522 8.57231 25.0444 8.64398C24.8608 8.76638 24.8654 9.03813 24.9729 9.19517C25.3701 9.77523 25.4671 11.0854 25.5343 11.7917C25.6055 12.5425 25.4535 14.5547 25.2076 15.3755L25.0092 15.9899C24.9627 16.1243 24.9202 16.2677 24.8749 16.3821C24.5626 17.1748 24.2717 18.0085 23.8174 18.7307L22.8363 20.1046C22.8312 20.1106 22.8239 20.1191 22.8188 20.1251L22.5067 20.4918C22.5016 20.4971 22.4938 20.505 22.4887 20.5103L21.7579 21.2393C21.752 21.2445 21.744 21.2525 21.7384 21.2578L21.4227 21.5406C21.4081 21.5528 21.3918 21.5675 21.3617 21.5925L20.7605 22.0798C20.7546 22.0846 20.7466 22.092 20.7408 22.0966L18.6508 23.3796C18.5985 23.4053 18.4898 23.4561 18.4733 23.4635L16.7569 24.1198C16.4239 24.2223 16.0166 24.2879 15.6846 24.399C15.6758 24.4019 15.6656 24.406 15.6568 24.4091C15.6483 24.412 15.6381 24.4161 15.6298 24.419C15.6218 24.4216 15.6118 24.4257 15.6038 24.4284L15.4968 24.4536C15.0303 24.5241 14.5439 24.5363 14.0747 24.6393C13.4477 24.7768 11.7749 24.6224 11.1097 24.5226C11.0817 24.5185 9.7066 24.1879 9.47214 24.0883L9.47092 24.0885Z" fill="#353535"/>


</svg>
