<svg width="30" height="32" viewBox="0 0 30 32" fill="none" xmlns="http://www.w3.org/2000/svg">
<path fill-rule="evenodd" clip-rule="evenodd" d="M10.0277 6.25C7.73472 6.25 5.80843 7.97411 5.55522 10.2531L4.5 19.75H1.5C0.671573 19.75 0 20.4216 0 21.25V22.75C0 23.5784 0.671573 24.25 1.5 24.25H22.5C23.3284 24.25 24 23.5784 24 22.75V21.25C24 20.4216 23.3284 19.75 22.5 19.75H19.5L18.4448 10.2531C18.1916 7.97411 16.2653 6.25 13.9723 6.25H10.0277Z" fill="#24262C"/>
<rect opacity="0.3" x="9" y="25.75" width="6" height="6" rx="2.25" fill="#FF0000"/>
<path fill-rule="evenodd" clip-rule="evenodd" d="M21 17.25C25.4183 17.25 29 13.6683 29 9.25C29 4.83172 25.4183 1.25 21 1.25C16.5817 1.25 13 4.83172 13 9.25C13 13.6683 16.5817 17.25 21 17.25Z" fill="#D0B45D"/>
<path d="M20.912 13.37C20.216 13.37 19.62 13.206 19.124 12.878C18.636 12.542 18.264 12.062 18.008 11.438C17.752 10.814 17.624 10.058 17.624 9.17C17.624 8.21 17.768 7.398 18.056 6.734C18.344 6.062 18.76 5.55 19.304 5.198C19.848 4.846 20.5 4.67 21.26 4.67C21.556 4.67 21.852 4.71 22.148 4.79C22.452 4.862 22.736 4.97 23 5.114C23.272 5.25 23.512 5.418 23.72 5.618L23.216 6.77C22.92 6.498 22.604 6.298 22.268 6.17C21.932 6.034 21.588 5.966 21.236 5.966C20.892 5.966 20.584 6.03 20.312 6.158C20.048 6.278 19.824 6.462 19.64 6.71C19.456 6.95 19.316 7.254 19.22 7.622C19.132 7.982 19.088 8.402 19.088 8.882V9.782H18.944C19.008 9.374 19.14 9.026 19.34 8.738C19.548 8.442 19.812 8.218 20.132 8.066C20.452 7.906 20.808 7.826 21.2 7.826C21.688 7.826 22.12 7.942 22.496 8.174C22.872 8.406 23.168 8.726 23.384 9.134C23.6 9.542 23.708 10.01 23.708 10.538C23.708 11.082 23.588 11.57 23.348 12.002C23.116 12.426 22.788 12.762 22.364 13.01C21.948 13.25 21.464 13.37 20.912 13.37ZM20.828 12.146C21.116 12.146 21.368 12.082 21.584 11.954C21.808 11.826 21.98 11.646 22.1 11.414C22.22 11.174 22.28 10.902 22.28 10.598C22.28 10.286 22.22 10.014 22.1 9.782C21.98 9.55 21.808 9.37 21.584 9.242C21.368 9.106 21.116 9.038 20.828 9.038C20.54 9.038 20.288 9.106 20.072 9.242C19.856 9.37 19.684 9.55 19.556 9.782C19.436 10.014 19.376 10.286 19.376 10.598C19.376 10.902 19.436 11.174 19.556 11.414C19.684 11.646 19.856 11.826 20.072 11.954C20.288 12.082 20.54 12.146 20.828 12.146Z" fill="white"/>
<path opacity="0.173224" fill-rule="evenodd" clip-rule="evenodd" d="M21 18.25C25.9706 18.25 30 14.2206 30 9.25C30 4.27944 25.9706 0.25 21 0.25C16.0294 0.25 12 4.27944 12 9.25C12 14.2206 16.0294 18.25 21 18.25Z" fill="#F93C65" fill-opacity="0.613691"/>
</svg>
